# ProBuilder 4.5.2
# https://unity3d.com/unity/features/worldbuilding/probuilder
# 25/10/2022 12:21:50

mtllib ./Box.mtl
o Box

g Box
v 0 0 0
v -5 0 0
v 0 3 0
v -5 3 0
v -5 0 -10
v -5 3 -10
v 0 0 -10
v 0 3 -10

vt 0 0
vt -5 0
vt 0 3
vt -5 3
vt -10 0
vt -10 3
vt 5 0
vt 5 3
vt 10 0
vt 10 3
vt 0 -10
vt 5 -10
vt -5 -10

vn 0 0 1
vn -1 0 0
vn 0 0 -1
vn 1 0 0
vn 0 1 0
vn 0 -1 0

usemtl Prototype_512x512_Grey4
f 3/3/1 4/4/1 2/2/1 1/1/1
f 4/3/2 6/6/2 5/5/2 2/1/2
f 6/8/3 8/3/3 7/1/3 5/7/3
f 8/10/4 3/3/4 1/1/4 7/9/4
f 8/11/5 6/12/5 4/7/5 3/1/5
f 1/1/6 2/2/6 5/13/6 7/11/6

